<?xml version="1.0" standalone="no"?>
<!DOCTYPE svg PUBLIC "-//W3C//DTD SVG 20010904//EN"
 "http://www.w3.org/TR/2001/REC-SVG-20010904/DTD/svg10.dtd">
<svg version="1.0" xmlns="http://www.w3.org/2000/svg"
 width="400.000000pt" height="400.000000pt" viewBox="0 0 400.000000 400.000000"
 preserveAspectRatio="xMidYMid meet">
<metadata>
Created by potrace 1.14, written by Peter Selinger 2001-2017
</metadata>
<g transform="translate(0.000000,400.000000) scale(0.100000,-0.100000)"
fill="#000000" stroke="none">
<path d="M1085 3475 c-308 -176 -577 -510 -852 -1057 -67 -133 -81 -179 -56
-178 4 0 37 45 73 100 36 55 71 108 78 117 7 10 57 79 110 155 146 203 295
388 314 388 5 0 15 -6 22 -12 8 -7 26 -24 42 -37 16 -13 61 -52 99 -86 39 -34
83 -72 99 -86 75 -64 79 -69 59 -76 -27 -10 -105 -63 -129 -89 -37 -39 -67
-95 -78 -148 -8 -34 -11 -225 -11 -591 l1 -540 26 -56 c14 -31 42 -74 62 -96
20 -22 36 -43 36 -46 0 -3 -71 -65 -157 -138 -87 -73 -169 -143 -183 -155 -14
-12 -77 -66 -140 -119 -63 -54 -121 -104 -129 -111 -12 -11 -10 -18 13 -49 30
-39 34 -38 88 10 18 17 60 53 93 80 33 28 62 52 65 55 4 5 47 41 264 223 27
22 54 46 60 52 6 5 36 31 66 57 l55 46 45 -25 c25 -14 124 -70 220 -126 215
-122 203 -116 407 -231 145 -82 177 -96 229 -102 108 -11 132 -1 565 246 222
126 405 230 406 230 2 0 54 -44 116 -97 159 -139 169 -147 181 -159 6 -5 49
-43 96 -84 47 -41 87 -77 90 -80 26 -27 149 -128 163 -133 22 -8 107 67 107
95 0 17 -48 68 -102 111 -16 12 -46 38 -66 57 -21 19 -64 58 -96 85 -82 71
-85 73 -162 141 -38 34 -93 81 -121 105 -48 40 -69 79 -43 79 6 0 10 5 10 11
0 6 8 23 18 37 41 59 43 94 40 672 -3 546 -3 556 -25 602 -28 59 -86 124 -134
149 -23 11 -36 24 -33 32 3 6 44 44 91 82 47 39 104 87 126 108 30 27 48 36
63 32 13 -3 27 2 34 10 9 11 34 15 96 15 l83 0 93 77 c161 134 165 139 149
165 -13 21 -10 25 45 75 33 29 62 53 67 53 18 0 3 27 -60 106 -36 46 -68 84
-71 84 -5 0 -62 -46 -111 -89 -29 -25 -30 -25 -54 -4 -16 16 -20 16 -30 3 -7
-8 -62 -57 -123 -108 -94 -78 -114 -100 -129 -140 -33 -92 -37 -101 -56 -118
-13 -12 -16 -21 -9 -29 8 -9 -13 -32 -77 -86 -49 -40 -90 -76 -93 -79 -3 -3
-34 -29 -69 -59 -61 -53 -64 -54 -90 -39 -14 9 -53 30 -86 48 -33 18 -77 44
-97 57 -21 12 -39 23 -42 23 -2 0 -33 17 -67 38 -35 21 -89 52 -119 69 -30 16
-71 39 -90 50 -237 137 -253 144 -338 145 -87 0 -115 -11 -317 -127 -93 -54
-186 -106 -205 -117 -19 -11 -66 -38 -105 -60 -38 -22 -89 -51 -112 -64 l-42
-24 -168 146 c-92 81 -176 156 -186 168 -23 25 -31 59 -23 92 13 51 144 160
301 249 63 35 60 32 45 50 -19 23 -39 19 -125 -30z m-317 -343 c15 -10 5 -42
-13 -42 -18 0 -28 17 -21 35 6 17 15 18 34 7z m1372 -44 c141 -76 850 -485
877 -504 17 -13 44 -50 60 -81 l28 -58 0 -247 c1 -137 -2 -248 -5 -248 -3 0
-21 48 -40 107 -32 102 -37 111 -94 167 -45 43 -66 73 -81 115 -19 51 -140
230 -157 231 -4 0 -38 -28 -75 -62 -76 -68 -120 -98 -145 -98 -20 0 -115 92
-229 219 -40 46 -87 98 -104 115 -16 18 -52 58 -80 89 -45 52 -75 71 -75 49 0
-14 -180 -252 -194 -258 -8 -3 -36 -33 -62 -67 -27 -34 -51 -64 -54 -67 -5 -4
-89 -108 -97 -119 -1 -2 -27 -5 -57 -6 -39 -2 -61 3 -73 14 -10 9 -41 34 -68
55 -28 22 -61 50 -74 63 l-24 24 -27 -43 c-15 -24 -96 -162 -180 -308 -85
-146 -160 -274 -167 -285 -12 -17 -13 25 -11 285 3 298 4 306 26 337 12 17 22
34 22 38 0 4 12 17 27 28 43 35 93 67 93 61 0 -3 12 3 28 14 15 10 142 84 282
164 140 80 273 156 295 169 233 133 245 138 320 135 51 -2 82 -10 115 -28z
m-1460 -77 c0 -16 -41 -61 -56 -61 -20 0 -17 23 6 48 21 22 50 30 50 13z
m-109 -150 c-16 -29 -41 -45 -52 -34 -6 6 -1 19 16 37 27 29 52 27 36 -3z
m-105 -146 c-9 -14 -21 -23 -26 -20 -15 9 -12 26 7 47 25 28 40 6 19 -27z"/>
</g>
</svg>
